<svg xmlns="http://www.w3.org/2000/svg" id="Layer_1" data-name="Layer 1" viewBox="0 0 400 140"><defs><style>.cls-1{fill:#333}.cls-2{fill:#909090}.cls-3{fill:#b9daf4}.cls-4{fill:#aad2f2}.cls-5{fill:#316389}.cls-20,.cls-6{fill:#fff}.cls-6{opacity:.1;isolation:isolate}.cls-7{fill:#638aa5}.cls-8{fill:#175d87}.cls-9{fill:#377093}.cls-10{fill:#515150}.cls-11{fill:#5d5d5d}.cls-12{fill:#171717}.cls-13{fill:#88be88}.cls-14{fill:#afd3af}.cls-15{fill:#2d2d2d}.cls-16{fill:#55878a}.cls-17{fill:#d4e1e2}.cls-18,.cls-19{fill:none;stroke-miterlimit:10}.cls-18{stroke:#333}.cls-19{stroke:#80a5a8;stroke-width:2px}.cls-20{opacity:.15}</style></defs><title>ems_device-app-mgmt-2</title><rect width="46" height="73" x="107" y="12" class="cls-1"/><rect width="32" height="6" x="114" y="19" class="cls-2"/><rect width="32" height="6" x="114" y="33" class="cls-2"/><rect width="7" height="6" x="139" y="73" class="cls-2"/><path d="M340.66,54.66H303.42c-3.57,0-5.82,0-7.48-.17l-.32,0a11.79,11.79,0,0,1-3.79-1l-.2-.08a12.8,12.8,0,0,1,8.08-24.13,13.92,13.92,0,0,1,13-9.24,13.53,13.53,0,0,1,6,1.41,13.4,13.4,0,0,1,11.4-6.4A13.76,13.76,0,0,1,343.46,26.7a14.18,14.18,0,0,1-.12,27.64A11.6,11.6,0,0,1,340.66,54.66Z" class="cls-3"/><path d="M235,72.4A20.23,20.23,0,0,1,234.86,33a19.63,19.63,0,0,1,19.08-16.73,19.12,19.12,0,0,1,16.25,9.13,19.3,19.3,0,0,1,8.57-2,19.85,19.85,0,0,1,18.5,13.18A18.26,18.26,0,0,1,308.79,71l-.28.12a16.82,16.82,0,0,1-5.4,1.48l-.46,0c-2.37.21-5.58.25-10.67.25H238.86A16.55,16.55,0,0,1,235,72.4Z" class="cls-4"/><path d="M98,63H68v56.72c0,5.84,15,9.66,30,9.66s30-4.12,30-10V63Z" class="cls-5"/><path d="M98,129h.41c16.34,0,29.59-4.74,29.59-10.6V62H98Z" class="cls-6"/><path d="M128,62.61c0,5.86-13.43,10.61-30,10.61S68,68.47,68,62.61,81.43,52,98,52s30,4.75,30,10.61" class="cls-7"/><path d="M122.58,63c0,3.87-11.16,7-24.93,7s-24.93-3.14-24.93-7,11.16-7,24.93-7,24.93,3.14,24.93,7" class="cls-8"/><path d="M117.35,67.28c3.26-1.18,5.22-2.66,5.22-4.27,0-3.87-11.16-7-24.93-7s-24.93,3.13-24.93,7c0,1.61,2,3.09,5.22,4.27,4.56-1.65,11.68-2.72,19.71-2.72s15.15,1.07,19.71,2.72" class="cls-9"/><rect width="131" height="70" x="147" y="41" class="cls-10"/><polygon points="239.53 126 184.69 126 187.9 122 236.32 122 239.53 126" class="cls-11"/><path d="M236.93,128H187.39a2.11,2.11,0,0,1-2.33-2h54S239.33,128,236.93,128Z" class="cls-12"/><polygon points="224.16 124 200.06 124 202.01 113 222.21 113 224.16 124" class="cls-12"/><path d="M276,40H148a3,3,0,0,0-3,3V111a3,3,0,0,0,3,3H276a3,3,0,0,0,3-3V43A3,3,0,0,0,276,40Zm-2,69H149V44H274Z" class="cls-12"/><rect width="77" height="47" x="173" y="54" class="cls-13"/><rect width="77" height="36" x="173" y="65" class="cls-14"/><rect width="77" height="3" x="173" y="62" class="cls-15"/><rect width="13" height="13" x="177" y="68" class="cls-16"/><rect width="53" height="20" x="193" y="69" class="cls-17"/><rect width="53" height="6" x="193" y="92" class="cls-17"/><line x1="149" x2="274" y1="50.5" y2="50.5" class="cls-18"/><line x1="149" x2="274" y1="105.5" y2="105.5" class="cls-18"/><line x1="260.5" x2="260.5" y1="50" y2="106" class="cls-18"/><line x1="164.5" x2="164.5" y1="50" y2="106" class="cls-18"/><line x1="149" x2="164" y1="68.5" y2="68.5" class="cls-18"/><line x1="149" x2="164" y1="71.5" y2="71.5" class="cls-18"/><line x1="149" x2="164" y1="86.5" y2="86.5" class="cls-18"/><line x1="149" x2="164" y1="89.5" y2="89.5" class="cls-18"/><line x1="149" x2="164" y1="53.5" y2="53.5" class="cls-18"/><line x1="197" x2="219" y1="72" y2="72" class="cls-19"/><line x1="197" x2="238" y1="77" y2="77" class="cls-19"/><line x1="202" x2="230" y1="81" y2="81" class="cls-19"/><line x1="202" x2="230" y1="86" y2="86" class="cls-19"/><polygon points="274 80.76 274 43 235.99 43 274 80.76" class="cls-20"/></svg>